<mxfile host="app.diagrams.net" modified="2022-10-12T19:47:31.802Z" agent="5.0 (Windows NT 10.0; Win64; x64) AppleWebKit/537.36 (KHTML, like Gecko) Chrome/106.0.0.0 Safari/537.36 Edg/106.0.1370.42" etag="kqdn4UwYR19LlSnlDnVY" version="18.0.6" type="github">
  <diagram id="pzQbEIoicmN9WcPmut9F" name="Page-1">
    <mxGraphModel dx="269" dy="290" grid="1" gridSize="10" guides="1" tooltips="1" connect="1" arrows="1" fold="1" page="1" pageScale="1" pageWidth="827" pageHeight="1169" math="0" shadow="0">
      <root>
        <mxCell id="0" />
        <mxCell id="1" parent="0" />
        <mxCell id="qhBvdjtNLFyP5LGxbN31-17" style="edgeStyle=orthogonalEdgeStyle;rounded=0;orthogonalLoop=1;jettySize=auto;html=1;exitX=0.5;exitY=1;exitDx=0;exitDy=0;exitPerimeter=0;endArrow=oval;endFill=1;" edge="1" parent="1" source="qhBvdjtNLFyP5LGxbN31-1">
          <mxGeometry relative="1" as="geometry">
            <mxPoint x="180" y="300" as="targetPoint" />
            <Array as="points">
              <mxPoint x="100" y="410" />
            </Array>
          </mxGeometry>
        </mxCell>
        <mxCell id="qhBvdjtNLFyP5LGxbN31-18" style="edgeStyle=orthogonalEdgeStyle;rounded=0;orthogonalLoop=1;jettySize=auto;html=1;exitX=0.5;exitY=0;exitDx=0;exitDy=0;exitPerimeter=0;endArrow=oval;endFill=1;" edge="1" parent="1" source="qhBvdjtNLFyP5LGxbN31-1">
          <mxGeometry relative="1" as="geometry">
            <mxPoint x="340" y="300" as="targetPoint" />
            <Array as="points">
              <mxPoint x="100" y="190" />
              <mxPoint x="340" y="190" />
            </Array>
          </mxGeometry>
        </mxCell>
        <mxCell id="qhBvdjtNLFyP5LGxbN31-1" value="" style="pointerEvents=1;verticalLabelPosition=bottom;shadow=0;dashed=0;align=center;html=1;verticalAlign=top;shape=mxgraph.electrical.signal_sources.source;aspect=fixed;points=[[0.5,0,0],[1,0.5,0],[0.5,1,0],[0,0.5,0]];elSignalType=ac;" vertex="1" parent="1">
          <mxGeometry x="70" y="270" width="60" height="60" as="geometry" />
        </mxCell>
        <mxCell id="qhBvdjtNLFyP5LGxbN31-2" value="" style="pointerEvents=1;fillColor=strokeColor;verticalLabelPosition=bottom;shadow=0;dashed=0;align=center;html=1;verticalAlign=top;shape=mxgraph.electrical.diodes.diode;rotation=-45;" vertex="1" parent="1">
          <mxGeometry x="192" y="245" width="54.75" height="31.46" as="geometry" />
        </mxCell>
        <mxCell id="qhBvdjtNLFyP5LGxbN31-3" value="" style="pointerEvents=1;fillColor=strokeColor;verticalLabelPosition=bottom;shadow=0;dashed=0;align=center;html=1;verticalAlign=top;shape=mxgraph.electrical.diodes.diode;rotation=-135;" vertex="1" parent="1">
          <mxGeometry x="272.25" y="245" width="54.75" height="31.46" as="geometry" />
        </mxCell>
        <mxCell id="qhBvdjtNLFyP5LGxbN31-4" value="" style="pointerEvents=1;fillColor=strokeColor;verticalLabelPosition=bottom;shadow=0;dashed=0;align=center;html=1;verticalAlign=top;shape=mxgraph.electrical.diodes.diode;rotation=-135;" vertex="1" parent="1">
          <mxGeometry x="192" y="324.27" width="54.75" height="31.46" as="geometry" />
        </mxCell>
        <mxCell id="qhBvdjtNLFyP5LGxbN31-5" value="" style="pointerEvents=1;fillColor=strokeColor;verticalLabelPosition=bottom;shadow=0;dashed=0;align=center;html=1;verticalAlign=top;shape=mxgraph.electrical.diodes.diode;rotation=-45;" vertex="1" parent="1">
          <mxGeometry x="272" y="325" width="55" height="31" as="geometry" />
        </mxCell>
        <mxCell id="qhBvdjtNLFyP5LGxbN31-19" style="edgeStyle=orthogonalEdgeStyle;rounded=0;orthogonalLoop=1;jettySize=auto;html=1;exitX=0;exitY=0.5;exitDx=0;exitDy=0;exitPerimeter=0;endArrow=oval;endFill=1;" edge="1" parent="1" source="qhBvdjtNLFyP5LGxbN31-6">
          <mxGeometry relative="1" as="geometry">
            <mxPoint x="260" y="380" as="targetPoint" />
            <Array as="points">
              <mxPoint x="440" y="410" />
              <mxPoint x="260" y="410" />
            </Array>
          </mxGeometry>
        </mxCell>
        <mxCell id="qhBvdjtNLFyP5LGxbN31-20" style="edgeStyle=orthogonalEdgeStyle;rounded=0;orthogonalLoop=1;jettySize=auto;html=1;exitX=1;exitY=0.5;exitDx=0;exitDy=0;exitPerimeter=0;endArrow=oval;endFill=1;" edge="1" parent="1" source="qhBvdjtNLFyP5LGxbN31-6">
          <mxGeometry relative="1" as="geometry">
            <mxPoint x="260" y="220" as="targetPoint" />
            <Array as="points">
              <mxPoint x="440" y="170" />
              <mxPoint x="260" y="170" />
            </Array>
          </mxGeometry>
        </mxCell>
        <mxCell id="qhBvdjtNLFyP5LGxbN31-6" value="" style="pointerEvents=1;verticalLabelPosition=bottom;shadow=0;dashed=0;align=center;html=1;verticalAlign=top;shape=mxgraph.electrical.resistors.resistor_1;rotation=-90;" vertex="1" parent="1">
          <mxGeometry x="390" y="290" width="100" height="20" as="geometry" />
        </mxCell>
        <mxCell id="qhBvdjtNLFyP5LGxbN31-8" value="" style="endArrow=none;html=1;rounded=0;entryX=0;entryY=0.5;entryDx=0;entryDy=0;entryPerimeter=0;" edge="1" parent="1" target="qhBvdjtNLFyP5LGxbN31-2">
          <mxGeometry width="50" height="50" relative="1" as="geometry">
            <mxPoint x="180" y="300" as="sourcePoint" />
            <mxPoint x="192" y="290" as="targetPoint" />
          </mxGeometry>
        </mxCell>
        <mxCell id="qhBvdjtNLFyP5LGxbN31-9" value="" style="endArrow=none;html=1;rounded=0;" edge="1" parent="1">
          <mxGeometry width="50" height="50" relative="1" as="geometry">
            <mxPoint x="260" y="380" as="sourcePoint" />
            <mxPoint x="280" y="360" as="targetPoint" />
          </mxGeometry>
        </mxCell>
        <mxCell id="qhBvdjtNLFyP5LGxbN31-10" value="" style="endArrow=none;html=1;rounded=0;exitX=1;exitY=0.5;exitDx=0;exitDy=0;exitPerimeter=0;" edge="1" parent="1" source="qhBvdjtNLFyP5LGxbN31-2">
          <mxGeometry width="50" height="50" relative="1" as="geometry">
            <mxPoint x="238" y="230" as="sourcePoint" />
            <mxPoint x="260" y="220" as="targetPoint" />
          </mxGeometry>
        </mxCell>
        <mxCell id="qhBvdjtNLFyP5LGxbN31-12" value="" style="endArrow=none;html=1;rounded=0;exitX=1;exitY=0.5;exitDx=0;exitDy=0;exitPerimeter=0;" edge="1" parent="1" source="qhBvdjtNLFyP5LGxbN31-5">
          <mxGeometry width="50" height="50" relative="1" as="geometry">
            <mxPoint x="327" y="310" as="sourcePoint" />
            <mxPoint x="340" y="300" as="targetPoint" />
          </mxGeometry>
        </mxCell>
        <mxCell id="qhBvdjtNLFyP5LGxbN31-13" value="" style="endArrow=none;html=1;rounded=0;entryX=1;entryY=0.5;entryDx=0;entryDy=0;entryPerimeter=0;" edge="1" parent="1" target="qhBvdjtNLFyP5LGxbN31-4">
          <mxGeometry width="50" height="50" relative="1" as="geometry">
            <mxPoint x="180" y="300" as="sourcePoint" />
            <mxPoint x="210" y="290" as="targetPoint" />
          </mxGeometry>
        </mxCell>
        <mxCell id="qhBvdjtNLFyP5LGxbN31-14" value="" style="endArrow=none;html=1;rounded=0;entryX=1;entryY=0.5;entryDx=0;entryDy=0;entryPerimeter=0;" edge="1" parent="1" target="qhBvdjtNLFyP5LGxbN31-3">
          <mxGeometry width="50" height="50" relative="1" as="geometry">
            <mxPoint x="260" y="220" as="sourcePoint" />
            <mxPoint x="272.24795186501825" y="240.6429518650183" as="targetPoint" />
          </mxGeometry>
        </mxCell>
        <mxCell id="qhBvdjtNLFyP5LGxbN31-15" value="" style="endArrow=none;html=1;rounded=0;exitX=0;exitY=0.5;exitDx=0;exitDy=0;exitPerimeter=0;" edge="1" parent="1" source="qhBvdjtNLFyP5LGxbN31-3">
          <mxGeometry width="50" height="50" relative="1" as="geometry">
            <mxPoint x="251.98" y="260" as="sourcePoint" />
            <mxPoint x="340" y="300" as="targetPoint" />
          </mxGeometry>
        </mxCell>
        <mxCell id="qhBvdjtNLFyP5LGxbN31-16" value="" style="endArrow=none;html=1;rounded=0;exitX=0;exitY=0.5;exitDx=0;exitDy=0;exitPerimeter=0;" edge="1" parent="1" source="qhBvdjtNLFyP5LGxbN31-4">
          <mxGeometry width="50" height="50" relative="1" as="geometry">
            <mxPoint x="230.0020481349817" y="369.9970481349817" as="sourcePoint" />
            <mxPoint x="260" y="380" as="targetPoint" />
          </mxGeometry>
        </mxCell>
        <mxCell id="qhBvdjtNLFyP5LGxbN31-23" value="" style="ellipse;whiteSpace=wrap;html=1;aspect=fixed;" vertex="1" parent="1">
          <mxGeometry x="148" y="185" width="10" height="10" as="geometry" />
        </mxCell>
        <mxCell id="qhBvdjtNLFyP5LGxbN31-24" value="" style="ellipse;whiteSpace=wrap;html=1;aspect=fixed;" vertex="1" parent="1">
          <mxGeometry x="148" y="405" width="10" height="10" as="geometry" />
        </mxCell>
      </root>
    </mxGraphModel>
  </diagram>
</mxfile>
